<svg width="336" height="244" viewBox="0 0 336 244" fill="none" xmlns="http://www.w3.org/2000/svg">
<path d="M168.09 164.68C163.159 163.344 158.122 162.562 153.559 160.645C107.146 141.166 60.8023 121.501 14.4412 101.881C5.81778 98.2328 0.481959 90.7697 0.745673 82.0671C1.03576 72.5822 5.80899 66.0421 14.5643 62.3413C60.8374 42.7913 107.102 23.2324 153.34 3.62087C163.15 -0.53703 172.898 -0.748004 182.691 3.39231C229.158 23.039 275.615 42.7121 322.064 62.3852C330.811 66.086 335.707 72.7141 335.689 82.2078C335.672 91.5521 330.846 98.1713 322.24 101.819C275.694 121.554 229.149 141.297 182.524 160.865C178.067 162.737 173.092 163.388 168.073 164.68H168.09Z" fill="#12332A"/>
<path d="M273.548 137.781C273.548 148.778 273.61 159.291 273.531 169.813C273.469 178.243 273.838 186.744 272.933 195.095C271.72 206.25 265.47 214.636 255.756 220.165C223.891 238.318 189.661 245.912 153.092 242.836C127.371 240.673 103.32 233.078 80.9575 220.227C69.2662 213.511 63.1831 203.208 63.0337 189.733C62.8491 173.391 62.9897 157.05 62.9897 140.717C62.9897 139.882 63.0864 139.038 63.1656 137.763C70.0837 140.673 76.7205 143.442 83.3397 146.237C105.017 155.406 126.686 164.583 148.363 173.751C161.549 179.325 174.77 179.386 187.964 173.831C215.302 162.315 242.623 150.756 269.962 139.222C270.955 138.8 271.966 138.414 273.539 137.781H273.548Z" fill="#12332A"/>
<path d="M290.958 176.932C283.169 168.95 281.939 160.274 287.389 152.723C288.461 151.238 289.727 149.62 291.301 148.82C294.21 147.352 294.887 145.278 294.667 142.254C294.412 138.764 294.782 135.23 294.544 131.74C294.386 129.332 295.318 128.25 297.48 127.468C301.058 126.167 304.522 124.558 308.592 122.844C308.592 128.435 308.592 133.63 308.592 138.817C308.592 140.68 308.363 142.579 308.671 144.39C308.873 145.576 309.576 147.062 310.534 147.686C320.696 154.305 322.111 166.946 313.532 175.578C313.163 175.956 312.6 176.141 311.721 176.651C318.437 181.749 319.501 188.342 319.149 195.533C318.947 199.691 319.175 203.857 319.087 208.024C318.982 212.665 316.397 215.39 311.721 215.496C304.935 215.645 298.131 215.654 291.345 215.478C286.756 215.364 284.154 212.49 284.101 207.857C284.04 202.161 284.049 196.465 284.101 190.76C284.154 185.16 286.677 180.703 290.958 176.923V176.932Z" fill="#12332A"/>
</svg>
