<svg width="252" height="252" viewBox="0 0 252 252" fill="none" xmlns="http://www.w3.org/2000/svg">
<path d="M17.701 217.733C17.701 211.506 17.6774 205.814 17.7089 200.13C17.7325 195.635 19.4329 193.927 23.9911 193.927C92.1282 193.911 160.265 193.911 228.402 193.927C233.142 193.927 234.81 195.596 234.834 200.28C234.866 205.956 234.834 211.624 234.834 217.733C238.613 217.733 242.108 217.718 245.604 217.733C250.343 217.765 251.91 219.332 251.926 224.126C251.949 230.896 251.941 237.675 251.926 244.445C251.926 250.224 250.571 251.601 244.872 251.601C227.001 251.601 209.138 251.601 191.267 251.601C130.491 251.601 69.7229 251.601 8.94669 251.601C7.96262 251.601 6.97855 251.625 6.00236 251.585C2.48332 251.444 0.664753 249.783 0.633263 246.335C0.554537 238.58 0.554537 230.826 0.633263 223.063C0.664753 219.458 2.48332 217.781 6.19917 217.726C9.89928 217.671 13.6072 217.71 17.701 217.71V217.733Z" fill="#12332A"/>
<path d="M126.145 97.1171C90.8992 97.1171 55.6459 97.1171 20.4004 97.1171C14.496 97.1171 13.0947 95.7237 13.0947 89.8822C13.0947 84.4817 13.1577 79.0811 13.0632 73.6805C13.016 71.0589 13.9685 69.2168 16.2122 67.8233C51.7883 45.7093 87.3487 23.5795 122.893 1.41825C125.546 -0.234991 127.798 0.268853 130.254 1.804C158.713 19.5724 187.204 37.2856 215.679 55.0225C222.34 59.1714 228.96 63.3832 235.684 67.4297C238.321 69.0199 239.533 71.0511 239.439 74.1607C239.281 79.3566 239.399 84.5683 239.399 89.772C239.399 95.6922 237.998 97.1171 232.18 97.1171C196.832 97.1171 161.485 97.1171 126.137 97.1171H126.145ZM105.463 57.4C105.33 69.0436 114.604 78.4749 126.231 78.4985C137.725 78.53 147.007 69.2955 147.07 57.7701C147.141 46.3312 138.119 37.0573 126.751 36.8684C114.997 36.6795 105.605 45.7329 105.471 57.4H105.463Z" fill="#12332A"/>
<path d="M107.838 107.226H144.65V183.59H107.838V107.226Z" fill="#12332A"/>
<path d="M36.2578 107.232H73.0149V183.612H36.2578V107.232Z" fill="#12332A"/>
<path d="M179.448 107.226H216.205V183.606H179.448V107.226Z" fill="#12332A"/>
</svg>
