<svg width="253" height="252" viewBox="0 0 253 252" fill="none" xmlns="http://www.w3.org/2000/svg">
<g clip-path="url(#clip0_115_98)">
<path d="M252.063 74.9509V246.146C250.104 250.392 246.731 251.614 242.178 251.608C164.776 251.516 87.38 251.547 9.97771 251.54C3.57616 251.54 0.916016 248.874 0.916016 242.454C0.916016 175.76 0.916016 109.066 0.916016 42.3718C0.916016 41.5056 0.916016 40.6455 0.916016 39.8223H84.3942V112.979C85.4325 112.42 86.2127 112.027 86.9684 111.591C109.945 98.1612 132.916 84.713 155.905 71.2894C162.485 67.4436 168.173 70.6996 168.186 78.2869C168.204 88.909 168.186 99.5373 168.186 110.159V113.028C169.267 112.445 169.98 112.089 170.668 111.683C183.637 104.102 196.606 96.5209 209.575 88.9397C219.724 83.0051 229.867 77.052 240.028 71.142C243.978 68.8443 247.529 69.133 250.054 71.9775C250.841 72.8621 251.4 73.9557 252.069 74.9571L252.063 74.9509ZM113.736 185.319C113.736 180.577 113.76 175.84 113.73 171.097C113.693 166.078 110.904 163.092 105.884 163.037C96.4048 162.938 86.9254 162.938 77.4459 163.037C72.4205 163.092 69.6191 166.072 69.6006 171.091C69.5699 180.405 69.5699 189.724 69.6006 199.038C69.6191 204.057 72.4205 207.043 77.4459 207.098C86.9254 207.196 96.4048 207.196 105.884 207.098C110.91 207.043 113.699 204.063 113.73 199.044C113.76 194.467 113.736 189.89 113.736 185.313V185.319ZM153.472 184.828C153.472 189.571 153.447 194.307 153.478 199.05C153.515 204.069 156.304 207.055 161.323 207.11C170.803 207.209 180.282 207.209 189.762 207.11C194.787 207.055 197.589 204.076 197.607 199.05C197.638 189.737 197.638 180.417 197.607 171.103C197.589 166.084 194.787 163.098 189.762 163.043C180.282 162.945 170.803 162.945 161.323 163.043C156.298 163.098 153.515 166.078 153.478 171.103C153.447 175.68 153.472 180.257 153.472 184.834V184.828Z" fill="#12332A"/>
<path d="M78.9098 0.392578C83.1549 2.35236 84.6048 5.71287 84.3652 10.2775C84.1133 15.0633 84.3099 19.8737 84.3099 24.7947H0.917727C0.917727 23.5905 0.917727 22.325 0.917727 21.0594C0.917727 17.4654 1.10818 13.8592 0.868579 10.2775C0.561403 5.71287 2.06657 2.35236 6.31174 0.392578H78.9098Z" fill="#12332A"/>
</g>
<defs>
<clipPath id="clip0_115_98">
<rect width="251.233" height="251.215" fill="white" transform="translate(0.830078 0.392578)"/>
</clipPath>
</defs>
</svg>
