<svg width="123" height="123" viewBox="0 0 123 123" fill="none" xmlns="http://www.w3.org/2000/svg">
<path d="M61.5386 0.0794067C27.6609 0.0794067 0.0770264 27.6338 0.0770264 61.4751C0.0770264 95.3165 27.6609 122.871 61.5386 122.871C95.4161 122.871 123 95.3165 123 61.4751C123 27.6338 95.4161 0.0794067 61.5386 0.0794067ZM116.338 62.1383L96.7682 42.8599C94.3098 40.4041 91.04 39.078 87.5736 39.078C84.1072 39.078 80.8128 40.4287 78.3789 42.8599L65.4474 55.7777L44.1817 34.5347C39.1174 29.4757 30.8569 29.4757 25.7925 34.5347L7.45241 52.8551C11.5826 26.7497 34.2742 6.73471 61.5386 6.73471C91.753 6.73471 116.313 30.9001 116.313 62.1137M115.477 70.9547C113.904 79.9184 110.142 88.1455 104.758 95.0464L70.1432 60.4683L83.0746 47.5506C85.5577 45.0702 89.5895 45.0702 92.048 47.5506L115.477 70.9547ZM22.5228 99.8352L39.8795 82.4971C41.0841 81.2937 42.6575 80.6553 44.3785 80.6553C46.0994 80.6553 47.6728 81.3183 48.8775 82.4971L79.559 113.146C73.9045 115.111 67.8567 116.191 61.5386 116.191C46.2714 116.191 32.455 109.929 22.5228 99.8352ZM85.6805 110.592C85.8035 110.493 85.951 110.395 86.0985 110.272L53.5731 77.7819C51.1147 75.326 47.8449 73.9754 44.3785 73.9754C40.912 73.9754 37.6177 75.326 35.1838 77.7819L18.1467 94.8008C11.2876 85.9107 7.10822 74.884 6.78862 62.875L30.4882 39.2008C32.9712 36.7204 37.0031 36.7204 39.4861 39.2008L100.382 100.032C96.1291 104.305 91.1875 107.866 85.7052 110.567L85.6805 110.592Z" fill="#AEE37B"/>
</svg>
