<svg width="1872" height="508" viewBox="0 0 1872 508" fill="none" xmlns="http://www.w3.org/2000/svg">
<path d="M1595.45 454.197C1590.71 454.197 1586.87 450.354 1586.87 445.614V405.462C1586.87 402.949 1587.97 400.562 1589.88 398.932L1723.76 284.703C1778.63 237.44 1798.73 211.907 1798.73 176.052C1798.73 136.395 1769.94 113.035 1733 113.035C1697.73 113.035 1673.52 130.829 1645.44 165.966C1642.47 169.694 1637.04 170.396 1633.28 167.458L1599.35 140.939C1595.72 138.098 1594.98 132.876 1597.74 129.183C1634.06 80.6423 1670.3 53.2769 1737.89 53.2769C1813.94 53.2769 1867.18 100.54 1867.18 170.619V171.706C1867.18 234.18 1835.13 266.775 1765.05 324.903L1698.92 380.365C1692.78 385.516 1696.43 395.526 1704.44 395.526H1862.95C1867.69 395.526 1871.53 399.369 1871.53 404.11V445.614C1871.53 450.354 1867.69 454.197 1862.95 454.197H1595.45Z" fill="white"/>
<path d="M1467.38 277.097C1465.56 274.924 1464.66 272.026 1464.66 268.405V239.069C1464.66 235.447 1465.56 232.731 1467.38 230.92C1469.55 228.747 1472.45 227.661 1476.07 227.661H1574.94C1578.56 227.661 1581.28 228.747 1583.09 230.92C1585.26 232.731 1586.35 235.447 1586.35 239.069V268.405C1586.35 272.026 1585.26 274.924 1583.09 277.097C1581.28 278.907 1578.56 279.813 1574.94 279.813H1476.07C1472.45 279.813 1469.55 278.907 1467.38 277.097Z" fill="white"/>
<path d="M1403.37 443.506C1403.37 447.128 1402.29 450.025 1400.11 452.198C1398.3 454.009 1395.59 454.915 1391.97 454.915H1355.57C1351.95 454.915 1349.05 454.009 1346.88 452.198C1345.06 450.025 1344.16 447.128 1344.16 443.506V68.1188C1344.16 64.4971 1345.06 61.7808 1346.88 59.9699C1349.05 57.7969 1351.95 56.7104 1355.57 56.7104H1391.97C1395.59 56.7104 1398.3 57.7969 1400.11 59.9699C1402.29 61.7808 1403.37 64.4971 1403.37 68.1188V443.506Z" fill="white"/>
<path d="M1309.82 446.223C1309.82 452.017 1306.38 454.915 1299.5 454.915H1253.87C1247.35 454.915 1243 451.836 1240.83 445.679L1204.98 345.721C1202.8 339.564 1198.46 336.486 1191.94 336.486H1053.95C1047.43 336.486 1043.09 339.564 1040.91 345.721L1005.06 445.679C1002.89 451.836 998.54 454.915 992.021 454.915H946.388C939.507 454.915 936.066 452.017 936.066 446.223L937.152 441.877L1081.66 65.9457C1083.83 59.7889 1088.18 56.7104 1094.7 56.7104H1151.19C1157.71 56.7104 1162.06 59.7889 1164.23 65.9457L1308.74 441.877L1309.82 446.223ZM1130.55 136.569C1128.74 131.498 1126.2 128.963 1122.94 128.963C1121.5 128.963 1120.05 129.687 1118.6 131.136C1117.15 132.585 1116.06 134.396 1115.34 136.569L1068.08 270.752L1066.99 275.098C1066.99 280.893 1070.43 283.79 1077.31 283.79H1168.58C1175.46 283.79 1178.9 280.893 1178.9 275.098L1177.81 270.752L1130.55 136.569Z" fill="white"/>
<path d="M905.882 440.79C907.692 443.687 908.598 446.042 908.598 447.852C908.598 452.561 905.157 454.915 898.276 454.915H854.816C849.021 454.915 844.494 452.561 841.235 447.852L719.546 279.987C717.373 276.728 714.657 275.098 711.397 275.098C708.5 275.098 705.784 276.366 703.248 278.901L644.034 341.375C640.412 345.359 638.601 350.067 638.601 355.499V443.506C638.601 447.128 637.515 450.025 635.342 452.198C633.531 454.009 630.815 454.915 627.193 454.915H590.795C587.173 454.915 584.276 454.009 582.103 452.198C580.292 450.025 579.387 447.128 579.387 443.506V68.1188C579.387 64.4971 580.292 61.7808 582.103 59.9699C584.276 57.7969 587.173 56.7104 590.795 56.7104H627.193C630.815 56.7104 633.531 57.7969 635.342 59.9699C637.515 61.7808 638.601 64.4971 638.601 68.1188V249.022C638.601 255.541 640.774 258.8 645.12 258.8C647.293 258.8 649.828 257.352 652.726 254.454L832.542 62.6862C836.164 58.7024 840.691 56.7104 846.124 56.7104H893.387C896.284 56.7104 898.638 57.4348 900.449 58.8835C902.26 59.97 903.165 61.4187 903.165 63.2295C903.165 65.0403 901.898 67.5755 899.363 70.835L758.66 220.23C756.125 222.765 754.857 225.662 754.857 228.922C754.857 231.095 755.763 233.63 757.574 236.527L905.882 440.79Z" fill="white"/>
<path d="M253.642 0.454102C113.834 0.454102 0 114.288 0 254.096C0 393.903 113.834 507.737 253.642 507.737C393.449 507.737 507.283 393.903 507.283 254.096C507.283 114.288 393.449 0.454102 253.642 0.454102ZM479.789 256.835L399.029 177.192C388.883 167.046 375.39 161.567 361.084 161.567C346.779 161.567 333.184 167.147 323.14 177.192L269.773 230.558L182.013 142.798C161.113 121.898 127.024 121.898 106.124 142.798L30.437 218.484C47.4817 110.636 141.126 27.9489 253.642 27.9489C378.332 27.9489 479.687 127.782 479.687 256.734M476.238 293.258C469.744 330.29 454.222 364.278 432.003 392.787L289.152 249.936L342.518 196.57C352.765 186.323 369.404 186.323 379.549 196.57L476.238 293.258ZM92.6299 412.571L164.258 340.943C169.23 335.971 175.723 333.333 182.825 333.333C189.927 333.333 196.42 336.073 201.392 340.943L328.009 467.561C304.674 475.677 279.716 480.141 253.642 480.141C190.637 480.141 133.618 454.27 92.6299 412.571ZM353.272 457.009C353.779 456.603 354.388 456.197 354.997 455.69L220.77 321.463C210.624 311.317 197.13 305.737 182.825 305.737C168.52 305.737 154.924 311.317 144.88 321.463L74.5707 391.773C46.2642 355.045 29.0166 309.491 27.6977 259.879L125.502 162.075C135.749 151.827 152.388 151.827 162.635 162.075L413.943 413.383C396.391 431.036 375.998 445.747 353.374 456.908L353.272 457.009Z" fill="white"/>
</svg>
