<svg width="64" height="64" viewBox="0 0 64 64" fill="none" xmlns="http://www.w3.org/2000/svg">
<g clip-path="url(#clip0_18_126)">
<path d="M36.5813 28.0747C36.5813 30.1867 35.8667 32.952 34.7573 35.12C32.0667 40.4 26.5893 40.3653 26.5893 34.7467C26.5893 32.6507 27.3093 29.9493 28.4213 27.8667C31.144 22.7333 36.5813 23.536 36.5813 28.0747ZM64 32C64 49.672 49.672 64 32 64C14.328 64 0 49.672 0 32C0 14.328 14.328 0 32 0C49.672 0 64 14.328 64 32ZM50.6667 28.816C50.6667 20.16 43.6507 13.88 33.984 13.88C20.7387 13.88 13.3333 22.2773 13.3333 32.7413C13.3333 42.5333 19.912 50.12 32.064 50.12C38.784 50.12 43.0613 48.184 45.7227 46.6853L43.8907 44.0427C41.1653 45.624 37.888 47.072 32.5413 47.072C23.3973 47.072 17.2533 41.208 17.2533 32.4773C17.2533 17.24 34.3227 14.456 41.824 18.9547C48.8213 23.3333 48.5547 33.8293 43.376 37.8427C40.6187 40.0453 37.512 39.9733 38.52 35.8267C38.52 35.8267 41.752 23.856 42.1307 22.56H38.4933L37.7707 25.0987C37.0293 23.0053 35.256 21.6453 32.6747 21.6453C27.2933 21.6453 22.7493 27.4853 22.7493 34.4C22.7493 39.0133 25.184 41.8773 29.096 41.8773C32.5173 41.8773 34.296 39.9413 35.4 38.216C34.6 45.944 50.6667 42.368 50.6667 28.816Z" fill="#AEE37B"/>
</g>
<defs>
<clipPath id="clip0_18_126">
<rect width="64" height="64" fill="white"/>
</clipPath>
</defs>
</svg>
