<?xml version="1.0" encoding="UTF-8"?> <!-- Generator: Adobe Illustrator 23.0.2, SVG Export Plug-In . SVG Version: 6.00 Build 0) --> <svg xmlns="http://www.w3.org/2000/svg" xmlns:xlink="http://www.w3.org/1999/xlink" id="Layer_1" x="0px" y="0px" viewBox="0 0 92.57 41.7" style="enable-background:new 0 0 92.57 41.7;" xml:space="preserve"> <style type="text/css"> .st0{fill:#1C2674;} .st1{fill:#EE3124;} </style> <g> <g> <path class="st0" d="M0,0v41.7h92.57V0H0z M91.7,40.83H0.87V25.61H91.7V40.83z"></path> </g> <g> <g> <path class="st1" d="M47.06,8.22c-4.8-6.62-18.82-6.75-18.82-6.75H2.55v22.58l27.64,0.26c7.01,0,13.11-3.24,13.11-3.24 C53.81,15.62,47.06,8.22,47.06,8.22z M32.92,21.71c-4.73,0-8.56-3.08-8.56-6.88c0-3.8,3.83-6.88,8.56-6.88s8.56,3.08,8.56,6.88 C41.48,18.64,37.65,21.71,32.92,21.71z"></path> </g> <path d="M20.07,30.8c-2.08-3.63-7.33-3.7-7.33-3.7H2.88v1.56h1.3c0.97,0,1.04,0.71,1.04,0.71v7.2C5.08,38,3.01,37.61,3.01,37.61 l0.03,1.52l9.25-0.03c5.64,0,6.94-2.53,6.94-2.53C21.43,33.85,20.07,30.8,20.07,30.8z M15.17,35.02c0,0-0.26,2.11-2.37,2.6 l-3.28-0.03v-8.95h3.02c0,0,2.47,0.39,2.69,2.66C15.24,31.28,15.59,33.39,15.17,35.02z"></path> <path d="M35.45,37.48c-0.94-0.03-1.27-0.88-1.27-0.88l-4.28-9.64h-4.44l-4.22,9.57c-0.81,1.33-2.21,1.04-2.21,1.04v1.59h6.78 v-1.62h-1.4c-1.27-0.16-0.39-1.17-0.39-1.17l0.71-1.2h4.48l0.84,1.75c0.13,0.75-2.27,0.55-2.27,0.55v1.65h8.43v-1.65H35.45z M25.13,33.65l1.86-4.02l2.03,4.02H25.13z"></path> <path d="M89.69,37.4c-0.94-0.03-1.27-0.88-1.27-0.88l-4.28-9.64H79.7l-4.22,9.57c-0.81,1.33-2.21,1.04-2.21,1.04v1.59h6.78v-1.62 h-1.39c-1.27-0.16-0.39-1.17-0.39-1.17l0.71-1.2h4.48l0.84,1.75c0.13,0.75-2.27,0.55-2.27,0.55v1.65h8.44V37.4H89.69z M79.38,33.57l1.86-4.02l2.03,4.02H79.38z"></path> <path d="M49.96,26.77v4.41h-1.99c0,0-0.48-2.73-4.58-2.86c0,0-2.47,0.09-2.64,1.3c0,0-0.3,1.25,2.6,1.51c0,0,6.06,0.52,6.88,2.51 c0,0,2.03,2.42-1.26,4.67c0,0-2.98,1.9-7.18,0.73c0,0-1.86-0.56-2.34-0.99c0,0-0.52,0.73-0.52,0.99H36.9v-4.59h2.34 c0,0-0.35,0.65,0.13,1.17c0,0,1.21,2.21,4.97,2.03c0,0,3.59-0.52,1.77-2.51c0,0-0.69-0.43-1.51-0.48c0,0-7.4-0.22-8-3.55 c0,0-0.86-3.42,3.85-4.2c0,0,4.84-0.86,7.05,0.74c0,0,0.43-0.09,0.69-0.61c0.26-0.52,0.17-0.34,0.17-0.34L49.96,26.77z"></path> <path d="M51.09,26.77h8.18l2.77,7.14l3.03-7.14h8.13v1.77c0,0-2.21-0.52-2.29,1.12v6.44c0,0-0.22,1.21,1.04,1.34h1.34v1.62h-8.43 v-1.8c0,0,1.99,0.39,2.12-0.91v-7.53l-4.11,10.17h-2.9L55.8,28.98v7.35c0,0,0,1.08,0.86,1.08h1.08v1.77h-6.62v-1.82h1.6 c0,0,0.56-0.04,0.65-0.86v-6.96c0,0,0.17-1.12-1.04-1.12h-1.3L51.09,26.77z"></path> </g> </g> </svg> 